<svg width="21" height="26" viewBox="0 0 21 26" fill="none" xmlns="http://www.w3.org/2000/svg">
<path d="M20.5599 20.2619C20.1828 21.1703 19.7366 22.0064 19.2195 22.7752C18.5147 23.8231 17.9376 24.5486 17.4928 24.9514C16.8034 25.6126 16.0647 25.9512 15.2737 25.9705C14.7058 25.9705 14.021 25.802 13.2239 25.4601C12.4241 25.1199 11.6891 24.9514 11.0171 24.9514C10.3123 24.9514 9.55634 25.1199 8.7478 25.4601C7.93802 25.802 7.28567 25.9801 6.78691 25.9978C6.02838 26.0315 5.27231 25.6832 4.51763 24.9514C4.03595 24.5132 3.43347 23.7622 2.71172 22.6981C1.93734 21.5619 1.30069 20.2442 0.801927 18.7421C0.267771 17.1195 0 15.5483 0 14.0272C0 12.2848 0.361029 10.782 1.08416 9.52262C1.65248 8.51105 2.40855 7.7131 3.35483 7.12732C4.30111 6.54153 5.32356 6.24302 6.42465 6.22393C7.02714 6.22393 7.81721 6.41828 8.79904 6.80024C9.7781 7.18349 10.4067 7.37784 10.6824 7.37784C10.8884 7.37784 11.5868 7.15059 12.7707 6.69753C13.8902 6.27737 14.8351 6.1034 15.6092 6.17193C17.7067 6.34847 19.2826 7.21077 20.3306 8.76431C18.4546 9.94968 17.5267 11.6099 17.5451 13.7398C17.5621 15.3988 18.1392 16.7793 19.2733 17.8754C19.7873 18.3842 20.3614 18.7774 21 19.0566C20.8615 19.4755 20.7153 19.8767 20.5599 20.2619ZM15.7492 0.520148C15.7492 1.82044 15.2937 3.03453 14.3858 4.15827C13.29 5.49418 11.9647 6.26613 10.5275 6.14432C10.5092 5.98833 10.4986 5.82415 10.4986 5.65162C10.4986 4.40334 11.0197 3.06743 11.945 1.97514C12.407 1.4221 12.9946 0.962247 13.7071 0.595417C14.4181 0.23406 15.0906 0.0342214 15.7231 0C15.7415 0.173829 15.7492 0.34767 15.7492 0.520131V0.520148Z" fill="white"/>
</svg>
