<svg width="25" height="25" viewBox="0 0 25 25" fill="none" xmlns="http://www.w3.org/2000/svg">
<path d="M25.0001 12.7849C25.0011 11.9331 24.9277 11.0828 24.7804 10.2434H12.7532V15.0574H19.6418C19.5009 15.8263 19.2025 16.5592 18.7647 17.2121C18.327 17.8649 17.7589 18.4241 17.0947 18.8559V21.9808H21.2059C23.6131 19.8055 25.0001 16.5886 25.0001 12.7849Z" fill="#4285F4"/>
<path d="M12.7535 24.9999C16.1952 24.9999 19.0931 23.8923 21.2063 21.9827L17.095 18.8578C15.9508 19.6182 14.477 20.0522 12.7535 20.0522C9.427 20.0522 6.60352 17.8544 5.59386 14.8927H1.35864V18.113C2.42014 20.1832 4.04782 21.9235 6.05997 23.1397C8.07212 24.3558 10.3896 24.9998 12.7535 24.9999Z" fill="#34A853"/>
<path d="M5.59324 14.8926C5.05948 13.3407 5.05948 11.66 5.59324 10.1081V6.88771H1.35802C0.465056 8.62923 0 10.5513 0 12.5003C0 14.4494 0.465056 16.3715 1.35802 18.113L5.59324 14.8926Z" fill="#FBBC04"/>
<path d="M12.7535 4.94855C14.5723 4.91943 16.3297 5.59293 17.6459 6.82348L21.286 3.25591C18.9778 1.13112 15.92 -0.0354269 12.7535 0.000820087C10.3896 0.000925682 8.07212 0.644988 6.05997 1.8611C4.04782 3.07722 2.42014 4.81752 1.35864 6.88772L5.59386 10.1081C6.60352 7.14639 9.427 4.94855 12.7535 4.94855Z" fill="#EA4335"/>
</svg>
